<svg xmlns="http://www.w3.org/2000/svg" width="30" height="30" viewBox="0 0 30 30">
    <g fill="#9B9B9B" fill-rule="evenodd">
        <path fill-rule="nonzero" d="M15 28.512c7.463 0 13.512-6.05 13.512-13.512 0-7.463-6.05-13.512-13.512-13.512C7.537 1.488 1.488 7.538 1.488 15c0 7.463 6.05 13.512 13.512 13.512zm0-1.15C8.172 27.363 2.637 21.829 2.637 15S8.172 2.637 15 2.637c6.828 0 12.363 5.535 12.363 12.363 0 6.828-5.535 12.363-12.363 12.363z"/>
        <path d="M15.824 17.53h-1.801v-.92c0-.332.031-.632.095-.9.064-.27.157-.512.278-.73.122-.216.269-.424.441-.622a8.5 8.5 0 0 1 .585-.604l.709-.67c.28-.243.514-.509.7-.796.185-.288.277-.655.277-1.102 0-.614-.195-1.102-.584-1.466-.39-.365-.891-.547-1.505-.547-.639 0-1.15.205-1.533.614a2.522 2.522 0 0 0-.671 1.495l-1.84-.211c.077-.55.236-1.045.48-1.486.242-.44.545-.814.91-1.12.364-.308.782-.54 1.255-.7a4.7 4.7 0 0 1 1.514-.24 4.79 4.79 0 0 1 1.505.23c.466.153.878.38 1.236.68.358.3.639.671.843 1.112.205.44.307.949.307 1.524 0 .409-.045.766-.134 1.073a3.19 3.19 0 0 1-.374.834c-.16.25-.354.482-.584.7-.23.217-.48.44-.748.67-.256.218-.473.412-.652.585-.179.172-.32.348-.421.527a2.003 2.003 0 0 0-.22.594 4.076 4.076 0 0 0-.068.805v.671zm.48 2.703c0 .332-.122.626-.365.881-.243.256-.55.383-.92.383-.358 0-.661-.124-.91-.373-.25-.25-.374-.54-.374-.872 0-.345.121-.642.364-.892.243-.249.55-.373.92-.373s.677.121.92.364a1.2 1.2 0 0 1 .364.882z"/>
    </g>
</svg>
