<?xml version="1.0" encoding="UTF-8" standalone="no"?>
<svg width="136px" height="50px" viewBox="0 0 136 50" version="1.1" xmlns="http://www.w3.org/2000/svg" xmlns:xlink="http://www.w3.org/1999/xlink">
    <!-- Generator: sketchtool 41.2 (35397) - http://www.bohemiancoding.com/sketch -->
    <title>F09E71A1-BC7E-423E-B6E8-44B7BB07663C</title>
    <desc>Created with sketchtool.</desc>
    <defs></defs>
    <g id="Page-1" stroke="none" stroke-width="1" fill="none" fill-rule="evenodd">
        <g id="1_setup-guide_welcome" transform="translate(-15.000000, -10.000000)">
            <g id="img_logo" transform="translate(15.000000, 10.000000)">
                <g>
                    <g id="Group" transform="translate(72.156863, 35.848485)" fill="#1494ED">
                        <path d="M2.39984735,11.1796174 L3.36610266,11.1796174 C4.56464787,11.1796174 5.19792489,10.4718955 5.19792489,9.41098229 C5.19792489,8.24915733 4.39815872,7.67628207 3.19961352,7.67628207 L2.39984735,7.67628207 L2.39984735,11.1796174 Z M2.39984735,5.75672578 L3.19961352,5.75672578 C4.23166958,5.75672578 4.91484918,5.14991559 4.91484918,4.32476089 C4.91484918,3.43173633 4.39815872,2.85930759 3.31575847,2.85930759 L2.39984735,2.85930759 L2.39984735,5.75672578 Z M0.101237261,0.939304777 L3.33209825,0.939304777 C5.79808072,0.939304777 7.21345927,1.983697 7.21345927,4.07203494 C7.21345927,5.13294812 6.69676882,6.00900522 5.73095512,6.59840143 C6.99706754,7.40703517 7.49653498,8.0808222 7.49653498,9.59628488 C7.49653498,12.0047721 5.89744427,13.0996202 3.46590783,13.0996202 L0.101237261,13.0996202 L0.101237261,0.939304777 Z" id="Fill-1"></path>
                        <path d="M15.3266034,3.93732219 L15.3266034,13.0997542 L13.2942876,13.0997542 L13.2942876,12.055362 C12.5285259,12.7287025 11.8117835,13.2676428 10.945775,13.2676428 C9.66332276,13.2676428 8.99736618,12.6112698 8.99736618,10.910058 L8.99736618,3.93732219 L11.0959243,3.93732219 L11.0959243,10.6742995 C11.0959243,11.2802166 11.2959763,11.6852033 11.8616861,11.6852033 C12.2949111,11.6852033 12.7780388,11.2636957 13.2280453,10.8596021 L13.2280453,3.93732219 L15.3266034,3.93732219 Z" id="Fill-3"></path>
                        <path d="M26.3384693,13.0995309 L24.2399112,13.0995309 L24.2399112,3.93709893 L26.3384693,3.93709893 L26.3384693,13.0995309 Z M24.2399112,0.434210085 L26.3384693,0.434210085 L26.3384693,2.35421289 L24.2399112,2.35421289 L24.2399112,0.434210085 Z M21.0744977,6.73324814 C20.791422,5.89067946 20.2583917,5.48703236 19.6255563,5.48703236 C19.1424287,5.48703236 18.7758876,5.84067009 18.7758876,6.31218706 C18.7758876,7.72718447 22.8736403,7.76067289 22.8736403,10.4888629 C22.8736403,12.307954 21.6075279,13.2679554 19.8582878,13.2679554 C18.5921754,13.2679554 17.459431,12.9478061 16.4437147,10.6571981 L18.3254395,10.1352252 C18.5091516,10.9943148 19.0258421,11.5497761 19.8582878,11.5497761 C20.4915648,11.5497761 20.8744457,11.2465943 20.8744457,10.7415889 C20.8744457,8.99036772 16.776693,9.41098229 16.776693,6.32915452 C16.776693,4.5940078 18.1589503,3.7688531 19.6418961,3.7688531 C21.2083072,3.7688531 22.2907075,4.67839862 22.807398,6.0594611 L21.0744977,6.73324814 Z" id="Fill-8"></path>
                        <path d="M28.1050208,13.0995309 L28.1050208,3.93709893 L30.1373365,3.93709893 L30.1373365,4.98149116 C30.9039815,4.30815064 31.6198407,3.76921031 32.4858492,3.76921031 C33.7683014,3.76921031 34.4351412,4.42558337 34.4351412,6.12679516 L34.4351412,13.0995309 L32.3356999,13.0995309 L32.3356999,6.36255364 C32.3356999,5.75663648 32.1365311,5.35164984 31.5699381,5.35164984 C31.136713,5.35164984 30.6535854,5.77315743 30.2035789,6.17725104 L30.2035789,13.0995309 L28.1050208,13.0995309 Z" id="Fill-10"></path>
                        <path d="M40.5823886,7.30581083 L40.5823886,6.80035893 C40.5823886,5.9921717 40.1995077,5.48716631 39.349839,5.48716631 C38.5001703,5.48716631 38.1172894,5.9921717 38.1172894,6.80035893 L38.1172894,7.30581083 L40.5823886,7.30581083 Z M38.1172894,9.02399009 L38.1172894,10.2362709 C38.1172894,11.1458165 38.6503196,11.5499101 39.349839,11.5499101 C40.2321873,11.5499101 40.5823886,10.9774813 40.5823886,10.2702059 L42.6809468,10.2702059 C42.5815832,12.1562737 41.4656202,13.2676428 39.349839,13.2676428 C37.3506444,13.2676428 36.017848,12.021427 36.017848,10.0174799 L36.017848,7.01914995 C36.017848,5.01520283 37.3506444,3.76898706 39.349839,3.76898706 C41.2982478,3.76898706 42.6809468,5.01520283 42.6809468,6.88474975 L42.6809468,9.02399009 L38.1172894,9.02399009 Z" id="Fill-11"></path>
                        <path d="M48.2623519,6.73324814 C47.9792762,5.89067946 47.4462459,5.48703236 46.8134105,5.48703236 C46.3302829,5.48703236 45.9637418,5.84067009 45.9637418,6.31218706 C45.9637418,7.72718447 50.0614945,7.76067289 50.0614945,10.4888629 C50.0614945,12.307954 48.7953821,13.2679554 47.046142,13.2679554 C45.7800296,13.2679554 44.6472852,12.9478061 43.6315689,10.6571981 L45.5132937,10.1352252 C45.6970058,10.9943148 46.2136963,11.5497761 47.046142,11.5497761 C47.679419,11.5497761 48.0622999,11.2465943 48.0622999,10.7415889 C48.0622999,8.99036772 43.9645472,9.41098229 43.9645472,6.32915452 C43.9645472,4.5940078 45.3468045,3.7688531 46.8297503,3.7688531 C48.3961614,3.7688531 49.4785617,4.67839862 49.9952522,6.0594611 L48.2623519,6.73324814 Z" id="Fill-12"></path>
                        <path d="M55.3756337,6.73324814 C55.0916748,5.89067946 54.5586446,5.48703236 53.9258092,5.48703236 C53.4426815,5.48703236 53.0761404,5.84067009 53.0761404,6.31218706 C53.0761404,7.72718447 57.1738932,7.76067289 57.1738932,10.4888629 C57.1738932,12.307954 55.908664,13.2679554 54.1594239,13.2679554 C52.8933115,13.2679554 51.760567,12.9478061 50.7448508,10.6571981 L52.6265756,10.1352252 C52.8094045,10.9943148 53.3260949,11.5497761 54.1594239,11.5497761 C54.7927009,11.5497761 55.1755818,11.2465943 55.1755818,10.7415889 C55.1755818,8.99036772 51.0778291,9.41098229 51.0778291,6.32915452 C51.0778291,4.5940078 52.4600864,3.7688531 53.9430322,3.7688531 C55.5085601,3.7688531 56.5909604,4.67839862 57.1076508,6.0594611 L55.3756337,6.73324814 Z" id="Fill-13"></path>
                    </g>
                    <path d="M19.9125876,5.34243014 C19.9125876,8.14697378 17.6629969,10.4197213 14.8892082,10.4197213 C12.117186,10.4197213 9.86759529,8.14697378 9.86759529,5.34243014 C9.86759529,2.53610045 12.117186,0.262459919 14.8892082,0.262459919 C17.6629969,0.262459919 19.9125876,2.53610045 19.9125876,5.34243014" id="Fill-14" fill="#1494ED"></path>
                    <path d="M0.0830237651,3.51364979 C-0.400103889,1.41816766 1.36459274,1.32975822 1.77352894,2.2995829 C6.47762014,11.6196337 12.5723594,22.7851198 14.9376535,22.7851198 C17.28175,22.7851198 23.3367439,11.557122 27.9754759,2.27011309 C28.3601233,1.23643716 30.1990113,1.51238175 29.69027,3.39175194 C25.9210794,14.881406 20.1266388,29.7069532 14.9376535,29.7069532 C9.7469017,29.7069532 3.91094928,15.0050899 0.0830237651,3.51364979" id="Fill-15" fill="#F89829"></path>
                    <path d="M30.4699868,17.836067 C30.4699868,13.6812702 32.952309,9.58273402 39.0589719,9.58273402 C45.1656348,9.58273402 47.6479571,13.6812702 47.6479571,17.836067 C47.6479571,24.0077598 43.2560882,26.1157442 39.0589719,26.1157442 C34.8653886,26.1157442 30.4699868,24.0077598 30.4699868,17.836067 M44.0532047,17.7784669 C44.0532047,14.1420709 41.7413461,12.6426827 39.0589719,12.6426827 C36.3492175,12.6426827 34.0669472,14.1420709 34.0669472,17.7784669 C34.0669472,21.0661369 35.8917036,23.0598142 39.0589719,23.0598142 C42.2262402,23.0598142 44.0532047,21.0661369 44.0532047,17.7784669" id="Fill-16" fill="#F89829"></path>
                    <path d="M51.9004078,10.1023404 L55.381665,10.1023404 L55.381665,12.0366316 C56.4923286,10.9395509 58.0057459,9.58260006 61.1160458,9.58260006 C64.3124607,9.58260006 67.1105382,10.9395509 67.1105382,15.6734741 L67.1105382,25.5940839 L63.5705462,25.5940839 L63.5705462,16.9987225 C63.5705462,13.941453 62.658168,12.6425487 60.2897826,12.6425487 C57.4656498,12.6425487 56.3236314,13.8244667 55.4368669,14.9215474 L55.4368669,25.5940839 L51.9004078,25.5940839 L51.9004078,10.1023404 Z" id="Fill-17" fill="#F89829"></path>
                    <path d="M87.5403904,23.0860691 C87.5403904,24.1255497 87.6008918,25.1614582 87.8269991,25.5941286 L84.2022168,25.5941286 C84.0869551,25.0788534 84.0021649,24.5600062 84.0021649,24.0384798 C82.517011,24.9024811 80.3226223,26.1156549 77.2971126,26.1156549 C75.2700962,26.1156549 71.3626799,25.2507607 71.3626799,21.4420109 C71.3626799,16.2191567 79.0684335,15.4690161 84.0021649,15.1823552 L84.0021649,14.4871356 C84.0021649,13.3065571 82.9484696,12.4702396 80.0364552,12.4702396 C76.7848383,12.4702396 76.0998923,13.6807344 75.8963074,14.5192845 L72.2185312,14.5192845 C73.073941,10.3046551 77.1540291,9.58264471 80.006867,9.58264471 C87.3973069,9.58264471 87.5403904,13.2199338 87.5403904,15.3524764 L87.5403904,23.0860691 Z M84.0021649,17.7801637 C81.9477683,17.865894 80.1503921,18.1534479 78.4978659,18.5597741 C76.2999442,19.0763888 75.2700962,19.826083 75.2422744,21.1821408 C75.2131278,22.5114078 76.070304,23.3441532 77.8111534,23.3441532 C80.4917611,23.3441532 82.6344808,22.1626817 84.0021649,21.3263642 L84.0021649,17.7801637 Z" id="Fill-18" fill="#F89829"></path>
                    <path d="M109.371048,12.6139719 C109.057059,12.5277951 108.484283,12.323739 108.087712,12.381339 C107.687167,12.381339 107.171801,12.5572649 106.945694,12.671572 C107.171801,12.9899353 107.65802,13.9124297 107.65802,15.2390176 C107.65802,19.451861 103.947565,20.9512493 99.8988312,20.9512493 C98.4688793,20.9512493 97.357774,20.723528 96.672828,20.4609788 C96.2727241,20.723528 95.7017149,21.1535193 95.7017149,21.7036224 C95.7017149,22.2488139 96.0448503,22.6229912 99.1260036,22.596647 L103.947565,22.596647 C107.401,22.7118472 109.398428,23.722751 109.398428,26.1437406 C109.398428,29.8359506 104.063268,30.9053475 99.4399924,30.9053475 C95.1580859,30.9053475 91.4511631,30.0408998 91.4511631,27.4694355 C91.4511631,25.6257863 93.0763091,25.3650231 94.5318747,25.0797018 L94.5318747,25.0185296 C93.2193926,24.9024364 92.2222242,24.1831051 92.2222242,22.6229912 C92.2222242,21.0664494 93.6764649,19.8836384 94.9028319,19.7126242 L94.9028319,19.6527915 C93.1915708,18.7012739 92.3635413,17.1724158 92.3635413,15.2091013 C92.3635413,10.6524435 96.5005978,9.58349309 100.268022,9.58349309 C102.950396,9.58349309 104.52034,10.2760336 105.575802,10.998044 C106.117664,10.4198106 107.259683,9.32540899 108.800039,9.32540899 L109.371048,9.32540899 L109.371048,12.6139719 Z M97.357774,25.796354 C96.5297445,25.796354 95.3307576,26.0294334 95.3307576,26.921565 C95.3307576,28.1932319 96.9850503,28.3370089 99.7813614,28.3370089 C102.552059,28.3370089 105.517067,28.0168596 105.517067,26.778681 C105.517067,25.7119632 104.891297,25.7704563 100.980348,25.796354 L97.357774,25.796354 Z M104.176763,15.2390176 C104.176763,12.9296561 101.837524,12.2371156 99.9557996,12.2371156 C98.0131318,12.2371156 95.8465649,12.9296561 95.8465649,15.2693805 C95.8465649,17.6912631 98.0427201,18.2949477 99.9244449,18.2949477 C101.810144,18.2949477 104.176763,17.5153372 104.176763,15.2390176 L104.176763,15.2390176 Z" id="Fill-19" fill="#F89829"></path>
                    <path d="M129.117853,20.9512046 C128.8573,22.2192995 126.80467,26.1155656 121.127257,26.1155656 C115.648572,26.1155656 112.3656,22.6537559 112.3656,17.8073116 C112.3656,13.419882 115.220646,9.58166239 120.86847,9.58166239 C126.633764,9.64194155 129.400929,13.2461887 129.400929,18.8441131 L115.962561,18.8441131 C116.105644,19.8259937 116.64574,23.0600821 121.011995,23.2306498 C123.236856,23.2306498 124.722451,22.1625924 125.234725,20.9512046 L129.117853,20.9512046 Z M125.634829,16.0752905 C125.093408,13.4511378 123.323412,12.4701503 120.784122,12.4701503 C118.928011,12.4701503 116.79059,13.1024117 116.074731,16.0752905 L125.634829,16.0752905 Z" id="Fill-20" fill="#F89829"></path>
                    <path d="M129.12302,10.0421505 C129.12302,11.5544876 130.318474,12.6855032 131.743568,12.6855032 C133.15983,12.6855032 134.349984,11.5544876 134.349984,10.0421505 C134.349984,8.55972973 133.15983,7.42960715 131.743568,7.42960715 C130.318474,7.42960715 129.12302,8.55972973 129.12302,10.0421505 L129.12302,10.0421505 Z M129.595549,10.0421505 C129.595549,8.78566494 130.527358,7.81494725 131.743568,7.81494725 C132.945646,7.81494725 133.879222,8.78566494 133.879222,10.0421505 C133.879222,11.3285524 132.945646,12.2992701 131.743568,12.2992701 C130.527358,12.2992701 129.595549,11.3285524 129.595549,10.0421505 L129.595549,10.0421505 Z M130.729176,11.5884225 L131.203472,11.5884225 L131.203472,10.2662997 L131.702056,10.2662997 L132.530086,11.5884225 L133.03706,11.5884225 L132.166194,10.2314717 C132.619734,10.1828019 132.966402,9.95061549 132.966402,9.39604723 C132.966402,8.805758 132.626799,8.51686455 131.905641,8.51686455 L130.729176,8.51686455 L130.729176,11.5884225 Z M131.203472,8.9039907 L131.827916,8.9039907 C132.147205,8.9039907 132.49564,8.96694893 132.49564,9.37506116 C132.49564,9.85908047 132.110992,9.88274562 131.69499,9.88274562 L131.203472,9.88274562 L131.203472,8.9039907 Z" id="Fill-21" fill="#F89829"></path>
                </g>
            </g>
        </g>
    </g>
</svg>